{"title":"Guardians of the Galaxy [2014] - Hindi Dubbed - CAMRip - x264 -","uid":10773288,"size":361813005,"categoryP":"video","categoryS":"movies","magnet":"?xt=urn:btih:e5adf0b317f479254fd0fa71eb47a371d6400778&amp;dn=Guardians+of+the+Galaxy+%5B2014%5D+-+Hindi+Dubbed+-+CAMRip+-+x264+-+&amp;tr=udp%3A%2F%2Ftracker.openbittorrent.com%3A80&amp;tr=udp%3A%2F%2Fopen.demonii.com%3A1337&amp;tr=udp%3A%2F%2Ftracker.coppersurfer.tk%3A6969&amp;tr=udp%3A%2F%2Fexodus.desync.com%3A6969","seeders":2,"leechers":0,"uploader":"TeamMCT","files":13,"time":1408102902,"description":"[CENTER]\n[quote=&quot;Team MCT ~ MovieClub&quot;][COLOR=&quot;Brown&quot;][SIZE=&quot;4&quot;][b]Problem-* Screenshots Wont Be Clear As It Is When It's Downloaded![/b][/SIZE][/COLOR]\n[COLOR=&quot;Purple&quot;][SIZE=&quot;4&quot;][b]Reason-* Screenshots Have Been Taken From Windows Server![/b][/SIZE][/COLOR]\n[COLOR=&quot;Green&quot;][SIZE=&quot;4&quot;][b]Solution-* Please Check The Sample Link Provided Below![/b][/SIZE][/COLOR][/quote]\n\n[quote=&quot;Downloaders&quot;][COLOR=&quot;Red&quot;][SIZE=&quot;3&quot;][b]Please Don't Complain if the video is not working! It has been tested!\nTry a different Video Player...If Any problems Please comment and, We as a team will help you![/b][/SIZE][/COLOR][/quote][/CENTER]\n\n\n[CENTER][IMG]http://i.imgbox.com/ZWbSnYVO.png[/IMG][/CENTER]\n\n\n[CENTER][IMG]http://www.cinemablend.com/images/news_img/43660/Guardians_of_the_Galaxy_43660.jpg[/IMG][/CENTER]\n\n\n[CENTER][B][COLOR=&quot;brown&quot;][SIZE=6]Media Info[/SIZE][/COLOR][/B][/CENTER]\n\n[CENTER][quote=&quot;Team MCT&quot;]\nGeneral\nComplete name                            : Guardians of the Galaxy [2014].mkv\nFormat                                   : Matroska\nFormat version                           : Version 2\nFile size                                : 340 MiB\nDuration                                 : 1h 53mn\nOverall bit rate                         : 421 Kbps\nWriting application                      : Lavf51.12.1\nWriting library                          : Lavf51.12.1\n\nVideo\nID                                       : 1\nFormat                                   : AVC\nFormat/Info                              : Advanced Video Codec\nFormat profile                           : &lt;a class=&quot;__cf_email__&quot; href=&quot;/cdn-cgi/l/email-protection&quot; data-cfemail=&quot;93d1f2e0f6fffafdf6d3dfa1bda2&quot;&gt;[email&amp;#160;protected]&lt;/a&gt;&lt;script cf-hash='f9e31' type=&quot;text/javascript&quot;&gt;\n/* &lt;![CDATA[ */!function(){try{var t=&quot;currentScript&quot;in document?document.currentScript:function(){for(var t=document.getElementsByTagName(&quot;script&quot;),e=t.length;e--;)if(t[e].getAttribute(&quot;cf-hash&quot;))return t[e]}();if(t&amp;&amp;t.previousSibling){var e,r,n,i,c=t.previousSibling,a=c.getAttribute(&quot;data-cfemail&quot;);if(a){for(e=&quot;&quot;,r=parseInt(a.substr(0,2),16),n=2;a.length-n;n+=2)i=parseInt(a.substr(n,2),16)^r,e+=String.fromCharCode(i);e=document.createTextNode(e),c.parentNode.replaceChild(e,c)}}}catch(u){}}();/* ]]&gt; */&lt;/script&gt;\nFormat settings, CABAC                   : No\nFormat settings, ReFrames                : 1 frame\nFormat settings, GOP                     : M=1, N=12\nCodec ID                                 : V_MPEG4/ISO/AVC\nDuration                                 : 1h 53mn\nBit rate                                 : 380 Kbps\nWidth                                    : 640 pixels\nHeight                                   : 272 pixels\nDisplay aspect ratio                     : 2.40:1\nOriginal display aspect ratio            : 2.40:1\nFrame rate mode                          : Constant\nFrame rate                               : 23.976 fps\nColor space                              : YUV\nChroma subsampling                       : 4:2:0\nBit depth                                : 8 bits\nScan type                                : Progressive\nBits/(Pixel*Frame)                       : 0.091\nStream size                              : 308 MiB (90%)\nDefault                                  : Yes\nForced                                   : No\n\nAudio\nID                                       : 2\nFormat                                   : AC-3\nFormat/Info                              : Audio Coding 3\nMode extension                           : CM (complete main)\nFormat settings, Endianness              : Big\nCodec ID                                 : A_AC3\nDuration                                 : 1h 53mn\nBit rate mode                            : Constant\nBit rate                                 : 32.0 Kbps\nChannel count                            : 2 channels\nChannel positions                        : Front: L R\nSampling rate                            : 32.0 KHz\nBit depth                                : 16 bits\nCompression mode                         : Lossy\nStream size                              : 25.9 MiB (8%)\nDefault                                  : Yes\nForced                                   : No\n[/quote][/CENTER]\n\n\n[CENTER][B][COLOR=&quot;brown&quot;][SIZE=6]Screenshots[/SIZE][/COLOR][/B][/CENTER]\n[CENTER]\n[url=http://www.mctorrents.com/imagehost/image/J][img]http://www.mctorrents.com/imagehost/images/2014/08/15/wwwMcTorrentscom00002.th.png[/img][/url] [url=http://www.mctorrents.com/imagehost/image/N][img]http://www.mctorrents.com/imagehost/images/2014/08/15/wwwMcTorrentscom00003.th.png[/img][/url] [url=http://www.mctorrents.com/imagehost/image/Q][img]http://www.mctorrents.com/imagehost/images/2014/08/15/wwwMcTorrentscom00004.th.png[/img][/url] [url=http://www.mctorrents.com/imagehost/image/o][img]http://www.mctorrents.com/imagehost/images/2014/08/15/wwwMcTorrentscom00005.th.png[/img][/url] [url=http://www.mctorrents.com/imagehost/image/v][img]http://www.mctorrents.com/imagehost/images/2014/08/15/wwwMcTorrentscom00007.th.png[/img][/url] [url=http://www.mctorrents.com/imagehost/image/9][img]http://www.mctorrents.com/imagehost/images/2014/08/15/wwwMcTorrentscom00009.th.png[/img][/url] [url=http://www.mctorrents.com/imagehost/image/D][img]http://www.mctorrents.com/imagehost/images/2014/08/15/wwwMcTorrentscom00010.th.png[/img][/url] [url=http://www.mctorrents.com/imagehost/image/L][img]http://www.mctorrents.com/imagehost/images/2014/08/15/wwwMcTorrentscom00013.th.png[/img][/url]\n[/CENTER]\n\n[CENTER]==================================\n[COLOR=&quot;RED&quot;][SIZE=&quot;4&quot;][b]SLOW SEEDING - PLEASE BE PATIENT[/b][/SIZE][/COLOR]\n==================================[/CENTER]\n\n[CENTER][B]Team MCT -=: MovieClub :=-[/B][/CENTER]\n\n[CENTER][COLOR=&quot;Purple&quot;][SIZE=&quot;3&quot;][b]Don't Forget To Say &quot;Thanks&quot;! And &quot;Comment&quot;! If You Like My Post![/b][/SIZE][/COLOR][/CENTER]\n[CENTER][COLOR=&quot;Green&quot;][SIZE=&quot;3&quot;][b]If You Don't Reply, This Post Will &quot;Die&quot;![/b][/SIZE][/COLOR][/CENTER]\n[CENTER][COLOR=&quot;Brown&quot;][SIZE=&quot;3&quot;][b]Check Sample Before &quot;Commenting&quot;![/b][/SIZE][/COLOR][/CENTER]\n\n[quote=&quot;MovieClub&quot;]Please Seed After downloading...and maintain your Ratio!\nIf Any Mistake, Forgive Me...All Suggestions, Instructions, Orders By Admin ETC, Heartly Accepted...\nIf You Want Any Other, Please PM Me...[/quote]","torrent":{"xt":"urn:btih:e5adf0b317f479254fd0fa71eb47a371d6400778","amp;dn":"Guardians+of+the+Galaxy+%5B2014%5D+-+Hindi+Dubbed+-+CAMRip+-+x264+-+","amp;tr":["udp%3A%2F%2Ftracker.openbittorrent.com%3A80","udp%3A%2F%2Fopen.demonii.com%3A1337","udp%3A%2F%2Ftracker.coppersurfer.tk%3A6969","udp%3A%2F%2Fexodus.desync.com%3A6969"],"infoHash":"e5adf0b317f479254fd0fa71eb47a371d6400778","infoHashBuffer":{"type":"Buffer","data":[229,173,240,179,23,244,121,37,79,208,250,113,235,71,163,113,214,64,7,120]},"announce":[],"urlList":[]}}